# xmcd
#
# Track frame offsets:
# 150
# 16775
# 32202
# 51866
# 67312
# 84296
# 99093
# 116909
# 132922
# 147590
# 161693
# 175107
# 188609
# 205662
# 220769
# 233315
# 250492
# 267249
# 282661
# 302959
#
# Disc length: 4302 seconds
#
#
# Revision: 0
# Processed by: cddbd v1.5.2PL0 Copyright (c) Steve Scherf et al.
# Submitted via: FreeRIP 2.95 
#
DISCID=2010cc14
DTITLE=Forro Cheiro De Menina E Vicente Nery - As 20 Mais De Forro Cheiro De Menina E Vicente Nery
DYEAR=2007
DGENRE=Forro
TTITLE0=Filhinho De Papai
TTITLE1=Ze Giore
TTITLE2=O Mundo
TTITLE3=Heroina
TTITLE4=Ponta De Faca
TTITLE5=Ponto G
TTITLE6=Ponto Final
TTITLE7=Mudanca Radical
TTITLE8=Os Coracoes Nao Sao Iguais
TTITLE9=To Fora
TTITLE10=Maria E Ze Matutinho
TTITLE11=O Auto-Falante Vai Tremer
TTITLE12=Saudade Dela
TTITLE13=Beco Sem Saida
TTITLE14=Cometa Mambenbe
TTITLE15=Leviana
TTITLE16=Ando Feliz Atoa
TTITLE17=Etiquetas
TTITLE18=Minha Mulher E Aquela
TTITLE19=Senhora Mamae
EXTD=
EXTT0=
EXTT1=
EXTT2=
EXTT3=
EXTT4=
EXTT5=
EXTT6=
EXTT7=
EXTT8=
EXTT9=
EXTT10=
EXTT11=
EXTT12=
EXTT13=
EXTT14=
EXTT15=
EXTT16=
EXTT17=
EXTT18=
EXTT19=
PLAYORDER=
